<?xml version="1.0" standalone="no"?><!DOCTYPE svg PUBLIC "-//W3C//DTD SVG 1.1//EN" "http://www.w3.org/Graphics/SVG/1.1/DTD/svg11.dtd"><svg t="1779172023553" class="icon" viewBox="0 0 1024 1024" version="1.1" xmlns="http://www.w3.org/2000/svg" p-id="2837" xmlns:xlink="http://www.w3.org/1999/xlink" width="200" height="200"><path d="M521.813333 226.56l-58.453333 42.666667 22.186667-68.693334-58.453334-42.666666h72.533334l22.186666-68.693334 22.186667 68.693334h72.533333l-58.453333 42.666666 22.186667 68.693334zM254.72 517.546667L196.266667 559.36l22.613333-68.266667-58.88-42.666666h72.533333L258.986667 379.733333l18.346666 68.693334h72.533334l-58.88 42.666666 22.613333 68.266667zM787.626667 414.72l-58.88 42.666667 22.613333-69.12-58.88-42.666667h72.533333l9.813334-69.12 34.986666 69.12h72.533334l-58.453334 42.666667 22.186667 69.12zM581.973333 320.853333h-119.466666c-28.16 0-51.2 23.04-51.2 51.2v512c0 28.16 23.04 51.2 51.2 51.2h119.466666c28.16 0 51.2-23.04 51.2-51.2v-512c0-28.586667-23.04-51.2-51.2-51.2z m-17.066666 546.133334h-85.333334v-477.866667h85.333334v477.866667zM314.88 627.626667h-119.466667c-28.16 0-51.2 23.04-51.2 51.2v204.8c0 28.16 23.04 51.2 51.2 51.2h119.466667c28.16 0 51.2-23.04 51.2-51.2v-204.8c0-28.16-23.04-51.2-51.2-51.2z m-17.066667 239.36h-85.333333v-170.666667h85.333333v170.666667zM848.64 525.653333h-119.466667c-28.16 0-51.2 23.04-51.2 51.2v307.2c0 28.16 23.04 51.2 51.2 51.2h119.466667c28.16 0 51.2-23.04 51.2-51.2v-307.2c0-28.586667-23.04-51.2-51.2-51.2z m-17.066667 341.333334h-85.333333v-273.066667h85.333333v273.066667z" fill="#2c2c2c" p-id="2838"></path></svg>