<?xml version="1.0" standalone="no"?><!DOCTYPE svg PUBLIC "-//W3C//DTD SVG 1.1//EN" "http://www.w3.org/Graphics/SVG/1.1/DTD/svg11.dtd"><svg t="1779172093352" class="icon" viewBox="0 0 1024 1024" version="1.1" xmlns="http://www.w3.org/2000/svg" p-id="4969" xmlns:xlink="http://www.w3.org/1999/xlink" width="200" height="200"><path d="M279.614325 408.051533 350.689081 375.335411 421.762813 408.051533 412.021961 331.60442 465.685161 275.372721 388.592342 260.838703 350.689081 193.372126 312.784796 260.838703 235.691977 275.372721 289.357224 331.60442Z" fill="#2c2c2c" p-id="4970"></path><path d="M331.59521 630.463042 65.290005 834.825476c15.742543 20.259416 32.893154 39.349193 51.325969 57.142441l201.321168-154.493653L331.59521 630.463042z" fill="#2c2c2c" p-id="4971"></path><path d="M597.709057 471.142453 519.373944 331.392596 441.034738 471.142453 281.713127 501.250168 392.620076 617.730043 372.486526 776.086677 519.373944 708.315154 666.25727 776.086677 646.125767 617.730043 757.032716 501.250168Z" fill="#2c2c2c" p-id="4972"></path><path d="M916.727835 181.429119 617.110943 411.356812l5.78168 10.273994 85.617983 16.116049L958.708971 245.741867C946.226682 223.264946 932.196131 201.777563 916.727835 181.429119z" fill="#2c2c2c" p-id="4973"></path><path d="M538.068725 270.039249 580.713988 249.007237 623.356181 270.039249 617.513102 220.893946 649.711432 184.744631 603.454922 175.400822 580.713988 132.031059 557.971008 175.400822 511.715521 184.744631 543.91385 220.893946Z" fill="#2c2c2c" p-id="4974"></path></svg>